<svg width="30" height="31" viewBox="0 0 30 31" fill="none" xmlns="http://www.w3.org/2000/svg">
<g clip-path="url(#clip0_2201_2777)">
<path fill-rule="evenodd" clip-rule="evenodd" d="M25.396 8.73921L15.657 3.11642C15.2505 2.88169 14.7495 2.88169 14.343 3.11642L4.60401 8.73921C4.19745 8.97393 3.94699 9.40776 3.94699 9.87721V21.1228C3.94699 21.5922 4.19745 22.0261 4.60401 22.2608L14.343 27.8836C14.7495 28.1183 15.2505 28.1183 15.657 27.8836L25.396 22.2608C25.8025 22.0261 26.053 21.5922 26.053 21.1228V9.87721C26.053 9.40776 25.8025 8.97393 25.396 8.73921ZM16.8772 1.003C15.7156 0.332334 14.2844 0.332334 13.1228 1.003L3.38383 6.62577C2.22221 7.29646 1.50662 8.53587 1.50662 9.87721V21.1228C1.50662 22.4641 2.22221 23.7035 3.38383 24.3742L13.1228 29.997C14.2844 30.6677 15.7156 30.6677 16.8772 29.997L26.6162 24.3742C27.7778 23.7035 28.4934 22.4641 28.4934 21.1228V9.87721C28.4934 8.53587 27.7778 7.29646 26.6162 6.62577L16.8772 1.003ZM13.686 10.4315C13.686 9.80948 14.1902 9.30522 14.8123 9.30522C15.4344 9.30522 15.9386 9.80948 15.9386 10.4315V14.186H20.0685C20.6905 14.186 21.1948 14.6902 21.1948 15.3123C21.1948 15.9343 20.6905 16.4386 20.0685 16.4386H15.9386V20.5685C15.9386 21.1905 15.4344 21.6948 14.8123 21.6948C14.1902 21.6948 13.686 21.1905 13.686 20.5685V16.4386H9.93155C9.30948 16.4386 8.80522 15.9343 8.80522 15.3123C8.80522 14.6902 9.30948 14.186 9.93155 14.186H13.686V10.4315Z" fill="#DA2931"/>
</g>
<defs>
<clipPath id="clip0_2201_2777">
<rect width="30" height="30" fill="white" transform="translate(0 0.5)"/>
</clipPath>
</defs>
</svg>
