<svg width="15" height="15" viewBox="0 0 15 15" fill="none" xmlns="http://www.w3.org/2000/svg">
<path d="M15 7.49476C14.9948 6.93107 14.7677 6.39215 14.3679 5.99476L9.77143 1.38761C9.57068 1.18806 9.29913 1.07605 9.01607 1.07605C8.73301 1.07605 8.46146 1.18806 8.26071 1.38761C8.16029 1.48722 8.08058 1.60572 8.02619 1.73628C7.97179 1.86684 7.94379 2.00689 7.94379 2.14833C7.94379 2.28977 7.97179 2.42981 8.02619 2.56037C8.08058 2.69094 8.16029 2.80944 8.26071 2.90904L11.7857 6.42333H1.07143C0.787268 6.42333 0.514746 6.53621 0.313814 6.73714C0.112883 6.93807 0 7.2106 0 7.49476C0 7.77892 0.112883 8.05144 0.313814 8.25237C0.514746 8.4533 0.787268 8.56618 1.07143 8.56618H11.7857L8.26071 12.0912C8.05896 12.2915 7.94505 12.5638 7.94405 12.8481C7.94304 13.1324 8.05502 13.4055 8.25536 13.6073C8.45569 13.809 8.72796 13.9229 9.01228 13.9239C9.2966 13.9249 9.56967 13.8129 9.77143 13.6126L14.3679 9.00547C14.7703 8.60545 14.9976 8.06216 15 7.49476Z" fill="#434343"/>
</svg>
