<svg width="16" height="16" viewBox="0 0 16 16" fill="none" xmlns="http://www.w3.org/2000/svg">
<g clip-path="url(#clip0_1947_3025)">
<path d="M15.5 7.99476C15.4948 7.43107 15.2677 6.89215 14.8679 6.49476L10.2714 1.88761C10.0707 1.68806 9.79913 1.57605 9.51607 1.57605C9.23302 1.57605 8.96146 1.68806 8.76071 1.88761C8.66029 1.98722 8.58058 2.10572 8.52619 2.23628C8.47179 2.36684 8.44379 2.50689 8.44379 2.64833C8.44379 2.78977 8.47179 2.92981 8.52619 3.06037C8.58058 3.19094 8.66029 3.30944 8.76071 3.40904L12.2857 6.92333H1.57143C1.28727 6.92333 1.01475 7.03621 0.813814 7.23714C0.612883 7.43807 0.5 7.7106 0.5 7.99476C0.5 8.27892 0.612883 8.55144 0.813814 8.75237C1.01475 8.9533 1.28727 9.06618 1.57143 9.06618H12.2857L8.76071 12.5912C8.55896 12.7915 8.44505 13.0638 8.44405 13.3481C8.44304 13.6324 8.55502 13.9055 8.75536 14.1073C8.95569 14.309 9.22796 14.4229 9.51228 14.4239C9.7966 14.4249 10.0697 14.3129 10.2714 14.1126L14.8679 9.50547C15.2703 9.10545 15.4976 8.56216 15.5 7.99476Z" fill="white"/>
</g>
<defs>
<clipPath id="clip0_1947_3025">
<rect width="15" height="15" fill="white" transform="translate(0.5 0.5)"/>
</clipPath>
</defs>
</svg>
