<svg width="25" height="26" viewBox="0 0 25 26" fill="none" xmlns="http://www.w3.org/2000/svg">
<path d="M23.9583 21.4101V19.3087C23.9545 16.4271 22.8846 13.6507 20.9579 11.5229C19.0312 9.3952 16.3866 8.06939 13.5417 7.80505V6.40977C13.9388 6.17848 14.2492 5.82147 14.4247 5.39411C14.6003 4.96675 14.631 4.49292 14.5123 4.04611C14.3936 3.5993 14.1321 3.20448 13.7683 2.92288C13.4044 2.64128 12.9586 2.48865 12.5 2.48865C12.0414 2.48865 11.5956 2.64128 11.2317 2.92288C10.8679 3.20448 10.6064 3.5993 10.4877 4.04611C10.369 4.49292 10.3997 4.96675 10.5753 5.39411C10.7508 5.82147 11.0612 6.17848 11.4583 6.40977V7.80505C8.61343 8.06939 5.96877 9.3952 4.04209 11.5229C2.11541 13.6507 1.04545 16.4271 1.04167 19.3087V21.4101C0.765399 21.4101 0.500448 21.5207 0.305097 21.7178C0.109747 21.9148 0 22.1821 0 22.4607C0 22.7394 0.109747 23.0066 0.305097 23.2036C0.500448 23.4007 0.765399 23.5114 1.04167 23.5114H23.9583C24.2346 23.5114 24.4996 23.4007 24.6949 23.2036C24.8903 23.0066 25 22.7394 25 22.4607C25 22.1821 24.8903 21.9148 24.6949 21.7178C24.4996 21.5207 24.2346 21.4101 23.9583 21.4101ZM3.125 19.3087C3.61771 6.77014 21.3865 6.7796 21.875 19.3087V21.4101H3.125V19.3087Z" fill="#F4262F"/>
</svg>
