<svg width="25" height="26" viewBox="0 0 25 26" fill="none" xmlns="http://www.w3.org/2000/svg">
<path d="M20.857 10.9167H20.7371C20.8818 10.4409 20.9145 9.93824 20.8328 9.44778C20.751 8.95733 20.557 8.49235 20.2658 8.08909C19.9746 7.68583 19.5942 7.35518 19.154 7.1229C18.7139 6.89063 18.2261 6.76302 17.7285 6.75H3.12855C-2.55603 7.1375 1.04285 15.7615 2.51431 18.1167C3.17419 19.1151 4.07392 19.9326 5.13138 20.4945C6.18884 21.0564 7.37034 21.3448 8.56806 21.3333H12.2879C13.4663 21.3441 14.6291 21.0646 15.6735 20.5195C16.718 19.9745 17.6118 19.1806 18.276 18.2083H20.857C25.8773 18.1115 26.8628 10.7312 20.857 10.9167ZM12.2879 19.25H8.56806C7.71728 19.2615 6.8772 19.0597 6.12462 18.6632C5.37204 18.2667 4.73098 17.688 4.26004 16.9802C3.69273 16.4375 0.515168 8.83333 3.12855 8.83333H17.7285C17.8719 8.83287 18.0139 8.8628 18.1449 8.92116C18.276 8.97951 18.3931 9.06496 18.4887 9.17187C18.5903 9.28374 18.6671 9.41582 18.7141 9.55945C18.761 9.70307 18.7769 9.85499 18.7609 10.0052C18.1738 14.4417 17.0694 19.0531 12.2879 19.25ZM20.857 16.125H19.3845C19.8132 15.1167 20.1463 14.0704 20.3794 13C21.6402 12.9156 23.0345 13.225 22.9427 14.1906C22.9088 14.7184 22.6737 15.2131 22.2857 15.5729C21.8977 15.9328 21.3864 16.1303 20.857 16.125ZM9.41172 3.625V1.54167C9.41172 1.2654 9.52159 1.00045 9.71717 0.805097C9.91274 0.609747 10.178 0.5 10.4546 0.5C10.7312 0.5 10.9964 0.609747 11.192 0.805097C11.3876 1.00045 11.4974 1.2654 11.4974 1.54167V3.625C11.4974 3.90127 11.3876 4.16622 11.192 4.36157C10.9964 4.55692 10.7312 4.66667 10.4546 4.66667C10.178 4.66667 9.91274 4.55692 9.71717 4.36157C9.52159 4.16622 9.41172 3.90127 9.41172 3.625ZM13.5831 3.625V1.54167C13.5831 1.2654 13.693 1.00045 13.8886 0.805097C14.0841 0.609747 14.3494 0.5 14.626 0.5C14.9026 0.5 15.1678 0.609747 15.3634 0.805097C15.559 1.00045 15.6688 1.2654 15.6688 1.54167V3.625C15.6688 3.90127 15.559 4.16622 15.3634 4.36157C15.1678 4.55692 14.9026 4.66667 14.626 4.66667C14.3494 4.66667 14.0841 4.55692 13.8886 4.36157C13.693 4.16622 13.5831 3.90127 13.5831 3.625ZM5.24032 3.625V1.54167C5.24032 1.2654 5.35019 1.00045 5.54577 0.805097C5.74134 0.609747 6.00659 0.5 6.28317 0.5C6.55975 0.5 6.82501 0.609747 7.02058 0.805097C7.21615 1.00045 7.32602 1.2654 7.32602 1.54167V3.625C7.32602 3.90127 7.21615 4.16622 7.02058 4.36157C6.82501 4.55692 6.55975 4.66667 6.28317 4.66667C6.00659 4.66667 5.74134 4.55692 5.54577 4.36157C5.35019 4.16622 5.24032 3.90127 5.24032 3.625ZM20.857 24.4583C20.857 24.7346 20.7471 24.9996 20.5516 25.1949C20.356 25.3903 20.0907 25.5 19.8142 25.5H1.04285C0.766269 25.5 0.501016 25.3903 0.305444 25.1949C0.109871 24.9996 0 24.7346 0 24.4583C0 24.1821 0.109871 23.9171 0.305444 23.7218C0.501016 23.5264 0.766269 23.4167 1.04285 23.4167H19.8142C20.0907 23.4167 20.356 23.5264 20.5516 23.7218C20.7471 23.9171 20.857 24.1821 20.857 24.4583Z" fill="white"/>
</svg>
