<svg width="20" height="20" viewBox="0 0 20 20" fill="none" xmlns="http://www.w3.org/2000/svg">
<g clip-path="url(#clip0_2338_651)">
<g clip-path="url(#clip1_2338_651)">
<path d="M10.8348 19.1604C10.8348 19.6205 10.4614 19.9939 10.0014 19.9939H4.16723C1.86942 19.9939 0 18.1244 0 15.8266V4.15838C0 1.86057 1.86942 -0.0088501 4.16723 -0.0088501H9.16791C11.4657 -0.0088501 13.3351 1.86057 13.3351 4.15838V8.32561C13.3351 8.78567 12.9618 9.15906 12.5017 9.15906C12.0416 9.15906 11.6682 8.78567 11.6682 8.32561V4.15838C11.6682 2.77986 10.5464 1.65804 9.16791 1.65804H4.16723C2.78871 1.65804 1.66689 2.77986 1.66689 4.15838V15.8266C1.66689 17.2051 2.78871 18.327 4.16723 18.327H10.0014C10.4614 18.327 10.8348 18.7004 10.8348 19.1604ZM5.00068 10.826H4.16723C3.70717 10.826 3.33378 11.1993 3.33378 11.6594C3.33378 12.1195 3.70717 12.4928 4.16723 12.4928H5.00068C5.46074 12.4928 5.83412 12.1195 5.83412 11.6594C5.83412 11.1993 5.46074 10.826 5.00068 10.826ZM9.16791 10.826H8.33446C7.8744 10.826 7.50102 11.1993 7.50102 11.6594C7.50102 12.1195 7.8744 12.4928 8.33446 12.4928H9.16791C9.62797 12.4928 10.0014 12.1195 10.0014 11.6594C10.0014 11.1993 9.62797 10.826 9.16791 10.826ZM5.00068 14.1597H4.16723C3.70717 14.1597 3.33378 14.5331 3.33378 14.9932C3.33378 15.4532 3.70717 15.8266 4.16723 15.8266H5.00068C5.46074 15.8266 5.83412 15.4532 5.83412 14.9932C5.83412 14.5331 5.46074 14.1597 5.00068 14.1597ZM9.16791 14.1597H8.33446C7.8744 14.1597 7.50102 14.5331 7.50102 14.9932C7.50102 15.4532 7.8744 15.8266 8.33446 15.8266H9.16791C9.62797 15.8266 10.0014 15.4532 10.0014 14.9932C10.0014 14.5331 9.62797 14.1597 9.16791 14.1597ZM5.00068 4.15838H4.16723C3.70717 4.15838 3.33378 4.53177 3.33378 4.99183C3.33378 5.45189 3.70717 5.82527 4.16723 5.82527H5.00068C5.46074 5.82527 5.83412 5.45189 5.83412 4.99183C5.83412 4.53177 5.46074 4.15838 5.00068 4.15838ZM9.16791 4.15838H8.33446C7.8744 4.15838 7.50102 4.53177 7.50102 4.99183C7.50102 5.45189 7.8744 5.82527 8.33446 5.82527H9.16791C9.62797 5.82527 10.0014 5.45189 10.0014 4.99183C10.0014 4.53177 9.62797 4.15838 9.16791 4.15838ZM5.00068 7.49217H4.16723C3.70717 7.49217 3.33378 7.86555 3.33378 8.32561C3.33378 8.78567 3.70717 9.15906 4.16723 9.15906H5.00068C5.46074 9.15906 5.83412 8.78567 5.83412 8.32561C5.83412 7.86555 5.46074 7.49217 5.00068 7.49217ZM9.16791 7.49217H8.33446C7.8744 7.49217 7.50102 7.86555 7.50102 8.32561C7.50102 8.78567 7.8744 9.15906 8.33446 9.15906H9.16791C9.62797 9.15906 10.0014 8.78567 10.0014 8.32561C10.0014 7.86555 9.62797 7.49217 9.16791 7.49217ZM18.66 17.8177L17.1265 19.3179C16.6556 19.7788 16.0372 20.0089 15.4188 20.0089C14.8003 20.0089 14.1819 19.7788 13.711 19.3179L12.1833 17.8244C10.3897 16.0308 10.3897 13.1221 12.1766 11.3352C13.0426 10.4692 14.1936 9.99251 15.4179 9.99251C16.6423 9.99251 17.7932 10.4692 18.6592 11.3344C20.4469 13.1221 20.4478 16.03 18.66 17.8177ZM17.4815 12.5137C16.9298 11.9628 16.1972 11.6594 15.4188 11.6594C14.6403 11.6594 13.9069 11.9628 13.356 12.5137C12.2183 13.6505 12.2183 15.5016 13.356 16.6392L14.877 18.1261C15.1754 18.4186 15.6621 18.4186 15.9613 18.1261L17.489 16.6326C18.62 15.5016 18.6192 13.6505 17.4815 12.5137ZM15.4188 13.3213C14.7287 13.3213 14.1686 13.8814 14.1686 14.5715C14.1686 15.2616 14.7287 15.8216 15.4188 15.8216C16.1088 15.8216 16.6689 15.2616 16.6689 14.5715C16.6689 13.8814 16.1088 13.3213 15.4188 13.3213Z" fill="black" fill-opacity="0.5"/>
<path d="M10.8348 19.1604C10.8348 19.6205 10.4614 19.9939 10.0014 19.9939H4.16723C1.86942 19.9939 0 18.1244 0 15.8266V4.15838C0 1.86057 1.86942 -0.0088501 4.16723 -0.0088501H9.16791C11.4657 -0.0088501 13.3351 1.86057 13.3351 4.15838V8.32561C13.3351 8.78567 12.9618 9.15906 12.5017 9.15906C12.0416 9.15906 11.6682 8.78567 11.6682 8.32561V4.15838C11.6682 2.77986 10.5464 1.65804 9.16791 1.65804H4.16723C2.78871 1.65804 1.66689 2.77986 1.66689 4.15838V15.8266C1.66689 17.2051 2.78871 18.327 4.16723 18.327H10.0014C10.4614 18.327 10.8348 18.7004 10.8348 19.1604ZM5.00068 10.826H4.16723C3.70717 10.826 3.33378 11.1993 3.33378 11.6594C3.33378 12.1195 3.70717 12.4928 4.16723 12.4928H5.00068C5.46074 12.4928 5.83412 12.1195 5.83412 11.6594C5.83412 11.1993 5.46074 10.826 5.00068 10.826ZM9.16791 10.826H8.33446C7.8744 10.826 7.50102 11.1993 7.50102 11.6594C7.50102 12.1195 7.8744 12.4928 8.33446 12.4928H9.16791C9.62797 12.4928 10.0014 12.1195 10.0014 11.6594C10.0014 11.1993 9.62797 10.826 9.16791 10.826ZM5.00068 14.1597H4.16723C3.70717 14.1597 3.33378 14.5331 3.33378 14.9932C3.33378 15.4532 3.70717 15.8266 4.16723 15.8266H5.00068C5.46074 15.8266 5.83412 15.4532 5.83412 14.9932C5.83412 14.5331 5.46074 14.1597 5.00068 14.1597ZM9.16791 14.1597H8.33446C7.8744 14.1597 7.50102 14.5331 7.50102 14.9932C7.50102 15.4532 7.8744 15.8266 8.33446 15.8266H9.16791C9.62797 15.8266 10.0014 15.4532 10.0014 14.9932C10.0014 14.5331 9.62797 14.1597 9.16791 14.1597ZM5.00068 4.15838H4.16723C3.70717 4.15838 3.33378 4.53177 3.33378 4.99183C3.33378 5.45189 3.70717 5.82527 4.16723 5.82527H5.00068C5.46074 5.82527 5.83412 5.45189 5.83412 4.99183C5.83412 4.53177 5.46074 4.15838 5.00068 4.15838ZM9.16791 4.15838H8.33446C7.8744 4.15838 7.50102 4.53177 7.50102 4.99183C7.50102 5.45189 7.8744 5.82527 8.33446 5.82527H9.16791C9.62797 5.82527 10.0014 5.45189 10.0014 4.99183C10.0014 4.53177 9.62797 4.15838 9.16791 4.15838ZM5.00068 7.49217H4.16723C3.70717 7.49217 3.33378 7.86555 3.33378 8.32561C3.33378 8.78567 3.70717 9.15906 4.16723 9.15906H5.00068C5.46074 9.15906 5.83412 8.78567 5.83412 8.32561C5.83412 7.86555 5.46074 7.49217 5.00068 7.49217ZM9.16791 7.49217H8.33446C7.8744 7.49217 7.50102 7.86555 7.50102 8.32561C7.50102 8.78567 7.8744 9.15906 8.33446 9.15906H9.16791C9.62797 9.15906 10.0014 8.78567 10.0014 8.32561C10.0014 7.86555 9.62797 7.49217 9.16791 7.49217ZM18.66 17.8177L17.1265 19.3179C16.6556 19.7788 16.0372 20.0089 15.4188 20.0089C14.8003 20.0089 14.1819 19.7788 13.711 19.3179L12.1833 17.8244C10.3897 16.0308 10.3897 13.1221 12.1766 11.3352C13.0426 10.4692 14.1936 9.99251 15.4179 9.99251C16.6423 9.99251 17.7932 10.4692 18.6592 11.3344C20.4469 13.1221 20.4478 16.03 18.66 17.8177ZM17.4815 12.5137C16.9298 11.9628 16.1972 11.6594 15.4188 11.6594C14.6403 11.6594 13.9069 11.9628 13.356 12.5137C12.2183 13.6505 12.2183 15.5016 13.356 16.6392L14.877 18.1261C15.1754 18.4186 15.6621 18.4186 15.9613 18.1261L17.489 16.6326C18.62 15.5016 18.6192 13.6505 17.4815 12.5137ZM15.4188 13.3213C14.7287 13.3213 14.1686 13.8814 14.1686 14.5715C14.1686 15.2616 14.7287 15.8216 15.4188 15.8216C16.1088 15.8216 16.6689 15.2616 16.6689 14.5715C16.6689 13.8814 16.1088 13.3213 15.4188 13.3213Z" fill="black" fill-opacity="0.2"/>
</g>
</g>
<defs>
<clipPath id="clip0_2338_651">
<rect width="20" height="20" fill="white"/>
</clipPath>
<clipPath id="clip1_2338_651">
<rect width="20" height="20" fill="white"/>
</clipPath>
</defs>
</svg>
