<svg width="20" height="20" viewBox="0 0 20 20" fill="none" xmlns="http://www.w3.org/2000/svg">
<g clip-path="url(#clip0_2338_755)">
<g clip-path="url(#clip1_2338_755)">
<path d="M15.8333 1.66667H15V0.833333C15 0.373333 14.6267 0 14.1667 0C13.7067 0 13.3333 0.373333 13.3333 0.833333V1.66667H6.66667V0.833333C6.66667 0.373333 6.29333 0 5.83333 0C5.37333 0 5 0.373333 5 0.833333V1.66667H4.16667C1.86917 1.66667 0 3.53583 0 5.83333V15.8333C0 18.1308 1.86917 20 4.16667 20H15.8333C18.1308 20 20 18.1308 20 15.8333V5.83333C20 3.53583 18.1308 1.66667 15.8333 1.66667ZM4.16667 3.33333H15.8333C17.2117 3.33333 18.3333 4.455 18.3333 5.83333V6.66667H1.66667V5.83333C1.66667 4.455 2.78833 3.33333 4.16667 3.33333ZM15.8333 18.3333H4.16667C2.78833 18.3333 1.66667 17.2117 1.66667 15.8333V8.33333H18.3333V15.8333C18.3333 17.2117 17.2117 18.3333 15.8333 18.3333ZM13.6642 12.7933C13.6642 13.1092 13.4442 13.375 13.1925 13.515L11.8892 14.24L12.4675 15.8175C12.5792 16.1233 12.4783 16.4658 12.2183 16.6617C11.9525 16.8617 11.5858 16.8592 11.3225 16.6558L10.0258 15.6533L8.72917 16.6558C8.46583 16.8592 8.09917 16.8617 7.83333 16.6617C7.57333 16.4658 7.4725 16.1233 7.58417 15.8175L8.1625 14.24L6.85917 13.515C6.6075 13.375 6.3875 13.1092 6.3875 12.7933C6.3875 12.5258 6.62 12.23 6.99667 12.23H8.86917L9.36583 10.3275C9.44417 10.0258 9.715 9.81583 10.0258 9.81C10.3367 9.81583 10.6075 10.0258 10.6858 10.3275L11.1825 12.23H13.055C13.4317 12.23 13.6642 12.525 13.6642 12.7933Z" fill="black" fill-opacity="0.5"/>
<path d="M15.8333 1.66667H15V0.833333C15 0.373333 14.6267 0 14.1667 0C13.7067 0 13.3333 0.373333 13.3333 0.833333V1.66667H6.66667V0.833333C6.66667 0.373333 6.29333 0 5.83333 0C5.37333 0 5 0.373333 5 0.833333V1.66667H4.16667C1.86917 1.66667 0 3.53583 0 5.83333V15.8333C0 18.1308 1.86917 20 4.16667 20H15.8333C18.1308 20 20 18.1308 20 15.8333V5.83333C20 3.53583 18.1308 1.66667 15.8333 1.66667ZM4.16667 3.33333H15.8333C17.2117 3.33333 18.3333 4.455 18.3333 5.83333V6.66667H1.66667V5.83333C1.66667 4.455 2.78833 3.33333 4.16667 3.33333ZM15.8333 18.3333H4.16667C2.78833 18.3333 1.66667 17.2117 1.66667 15.8333V8.33333H18.3333V15.8333C18.3333 17.2117 17.2117 18.3333 15.8333 18.3333ZM13.6642 12.7933C13.6642 13.1092 13.4442 13.375 13.1925 13.515L11.8892 14.24L12.4675 15.8175C12.5792 16.1233 12.4783 16.4658 12.2183 16.6617C11.9525 16.8617 11.5858 16.8592 11.3225 16.6558L10.0258 15.6533L8.72917 16.6558C8.46583 16.8592 8.09917 16.8617 7.83333 16.6617C7.57333 16.4658 7.4725 16.1233 7.58417 15.8175L8.1625 14.24L6.85917 13.515C6.6075 13.375 6.3875 13.1092 6.3875 12.7933C6.3875 12.5258 6.62 12.23 6.99667 12.23H8.86917L9.36583 10.3275C9.44417 10.0258 9.715 9.81583 10.0258 9.81C10.3367 9.81583 10.6075 10.0258 10.6858 10.3275L11.1825 12.23H13.055C13.4317 12.23 13.6642 12.525 13.6642 12.7933Z" fill="black" fill-opacity="0.2"/>
</g>
</g>
<defs>
<clipPath id="clip0_2338_755">
<rect width="20" height="20" fill="white"/>
</clipPath>
<clipPath id="clip1_2338_755">
<rect width="20" height="20" fill="white"/>
</clipPath>
</defs>
</svg>
