<svg width="30" height="31" viewBox="0 0 30 31" fill="none" xmlns="http://www.w3.org/2000/svg">
<g clip-path="url(#clip0_2201_2775)">
<path d="M28.9012 11.8163L19.42 2.32813C18.2466 1.15741 16.6571 0.5 15 0.5C13.3429 0.5 11.7534 1.15741 10.58 2.32813L1.09876 11.8163C0.749296 12.1637 0.472227 12.5771 0.283618 13.0325C0.0950089 13.4879 -0.001388 13.9762 1.50993e-05 14.4691V26.7478C1.50993e-05 27.7429 0.395103 28.6973 1.09836 29.401C1.80162 30.1047 2.75545 30.5 3.75001 30.5H26.25C27.2445 30.5 28.1984 30.1047 28.9016 29.401C29.6049 28.6973 30 27.7429 30 26.7478V14.4691C30.0014 13.9762 29.905 13.4879 29.7164 13.0325C29.5278 12.5771 29.2507 12.1637 28.9012 11.8163ZM18.75 27.9985H11.25V23.0781C11.25 22.0829 11.6451 21.1285 12.3484 20.4248C13.0516 19.7211 14.0054 19.3258 15 19.3258C15.9946 19.3258 16.9484 19.7211 17.6516 20.4248C18.3549 21.1285 18.75 22.0829 18.75 23.0781V27.9985ZM27.5 26.7478C27.5 27.0795 27.3683 27.3976 27.1339 27.6322C26.8995 27.8667 26.5815 27.9985 26.25 27.9985H21.25V23.0781C21.25 21.4195 20.5915 19.8288 19.4194 18.656C18.2473 17.4832 16.6576 16.8243 15 16.8243C13.3424 16.8243 11.7527 17.4832 10.5806 18.656C9.40849 19.8288 8.75001 21.4195 8.75001 23.0781V27.9985H3.75001C3.41849 27.9985 3.10055 27.8667 2.86613 27.6322C2.63171 27.3976 2.50001 27.0795 2.50001 26.7478V14.4691C2.50117 14.1377 2.63275 13.82 2.86626 13.5849L12.3475 4.10044C13.0521 3.39868 14.0058 3.00471 15 3.00471C15.9942 3.00471 16.9479 3.39868 17.6525 4.10044L27.1337 13.5886C27.3663 13.8228 27.4978 14.139 27.5 14.4691V26.7478Z" fill="#DA2931"/>
</g>
<defs>
<clipPath id="clip0_2201_2775">
<rect width="30" height="30" fill="white" transform="translate(0 0.5)"/>
</clipPath>
</defs>
</svg>
