<svg width="50" height="50" viewBox="0 0 50 50" fill="none" xmlns="http://www.w3.org/2000/svg">
<g clip-path="url(#clip0_2149_1154)">
<path d="M15.6214 50C11.8485 49.9976 8.20379 48.6312 5.35982 46.153C2.51585 43.6748 0.664538 40.252 0.147508 36.5162C-0.369523 32.7805 0.48262 28.9838 2.54669 25.8269C4.61076 22.67 7.74746 20.3658 11.378 19.3396C14.0168 18.5842 16.81 18.5497 19.4667 19.2396L35.9484 2.76879C36.8234 1.88813 37.8646 1.1899 39.0116 0.714614C40.1586 0.239326 41.3886 -0.00356209 42.6303 3.94734e-05C44.5844 0.00169454 46.4579 0.778354 47.8396 2.15951C49.2213 3.54067 49.9983 5.41345 50 7.3667C50.0032 8.60793 49.7603 9.83748 49.2852 10.9843C48.8101 12.1311 48.1123 13.1724 47.2322 14.0479L45.8316 15.4479C45.0479 16.2259 43.9891 16.6638 42.8846 16.6667H39.5791V18.75C39.5791 19.8551 39.1399 20.9149 38.3582 21.6963C37.5765 22.4777 36.5162 22.9167 35.4107 22.9167H33.3265V26.2209C33.328 26.7682 33.2208 27.3104 33.0112 27.8161C32.8015 28.3218 32.4936 28.7808 32.1052 29.1667L30.7505 30.5208C31.4444 33.1752 31.4106 35.9674 30.6525 38.6042C29.7995 41.6083 28.0688 44.2896 25.682 46.3046C23.2953 48.3196 20.3611 49.5766 17.2554 49.9146C16.7125 49.971 16.1672 49.9995 15.6214 50ZM15.6214 22.9167C13.4875 22.9146 11.3954 23.508 9.58057 24.63C7.76574 25.752 6.30026 27.3581 5.34908 29.2675C4.3979 31.1769 3.99879 33.3138 4.19668 35.4376C4.39456 37.5614 5.18159 39.5879 6.46916 41.2888C7.75672 42.9898 9.49372 44.2978 11.4846 45.0655C13.4755 45.8332 15.6412 46.0301 17.7381 45.6342C19.8349 45.2383 21.7795 44.2652 23.353 42.8244C24.9266 41.3836 26.0665 39.5324 26.6446 37.4792C27.2949 35.222 27.222 32.8179 26.4362 30.6042C26.308 30.2345 26.2865 29.8361 26.3742 29.4548C26.4619 29.0735 26.6553 28.7245 26.9322 28.4479L29.1581 26.2209V22.9167C29.1581 21.8116 29.5973 20.7518 30.379 19.9704C31.1608 19.189 32.221 18.75 33.3265 18.75H35.4107V16.6667C35.4107 15.5616 35.8499 14.5018 36.6316 13.7204C37.4133 12.939 38.4735 12.5 39.5791 12.5H42.8846L44.2851 11.1C44.7769 10.6108 45.1668 10.0289 45.4322 9.38811C45.6977 8.7473 45.8334 8.06026 45.8316 7.3667C45.8311 6.51854 45.4939 5.70524 44.8941 5.1053C44.2943 4.50537 43.4809 4.16781 42.6324 4.1667C41.9381 4.165 41.2503 4.30092 40.6089 4.56662C39.9674 4.83231 39.3851 5.2225 38.8954 5.71462L21.5321 23.0688C21.255 23.3456 20.9055 23.5388 20.5236 23.6261C20.1417 23.7134 19.7429 23.6914 19.3729 23.5625C18.1642 23.1371 16.8924 22.9188 15.611 22.9167H15.6214ZM10.4005 37.5C10.4005 37.9121 10.5227 38.3148 10.7518 38.6574C10.9808 39 11.3063 39.2671 11.6871 39.4248C12.0679 39.5824 12.487 39.6237 12.8913 39.5433C13.2956 39.4629 13.667 39.2645 13.9584 38.9731C14.2499 38.6818 14.4484 38.3106 14.5288 37.9064C14.6092 37.5023 14.568 37.0834 14.4102 36.7028C14.2525 36.3221 13.9853 35.9967 13.6426 35.7678C13.2999 35.5389 12.8969 35.4167 12.4847 35.4167C11.9319 35.4167 11.4018 35.6362 11.011 36.0269C10.6201 36.4176 10.4005 36.9475 10.4005 37.5Z" fill="#434343"/>
</g>
<defs>
<clipPath id="clip0_2149_1154">
<rect width="50" height="50" fill="white"/>
</clipPath>
</defs>
</svg>
