<svg width="30" height="31" viewBox="0 0 30 31" fill="none" xmlns="http://www.w3.org/2000/svg">
<g clip-path="url(#clip0_2199_1365)">
<path fill-rule="evenodd" clip-rule="evenodd" d="M11.9716 29.78C12.9091 30.2585 13.9475 30.5053 15 30.4999C16.0525 30.5053 17.0909 30.2585 18.0284 29.78C18.9659 29.3016 19.7751 28.6056 20.3883 27.7502C25.1516 21.1794 27.5677 16.2399 27.5677 13.0677C27.5677 9.7345 26.2436 6.5379 23.8867 4.18099C21.5298 1.82409 18.3332 0.5 15 0.5C11.6668 0.5 8.47023 1.82409 6.11331 4.18099C3.75642 6.5379 2.43233 9.7345 2.43233 13.0677C2.43233 16.2399 4.84837 21.1794 9.61171 27.7502C10.2249 28.6056 11.0341 29.3016 11.9716 29.78ZM8.04419 6.11435C9.88918 4.26933 12.3907 3.23149 15 3.22851C17.6092 3.23149 20.1108 4.26933 21.9558 6.11435C23.8008 7.95938 24.8387 10.4609 24.8417 13.0702C24.8417 15.5825 22.4756 20.2283 18.181 26.1515C17.8164 26.6537 17.3381 27.0625 16.7852 27.3443C16.2323 27.6261 15.6206 27.773 15 27.773C14.3794 27.773 13.7677 27.6261 13.2148 27.3443C12.6619 27.0625 12.1836 26.6537 11.819 26.1515C7.52439 20.2283 5.15834 15.5825 5.15834 13.0702C5.16132 10.4609 6.19916 7.95938 8.04419 6.11435ZM12.2224 8.84442C13.0445 8.29509 14.0112 8.00185 15 8.00185C16.326 8.00185 17.5976 8.52857 18.5352 9.46622C19.4728 10.4038 19.9995 11.6755 19.9995 13.0014C19.9995 13.9903 19.7064 14.9569 19.157 15.779C18.6077 16.6012 17.8268 17.242 16.9133 17.6204C15.9997 17.9988 14.9944 18.0979 14.0246 17.9049C13.0548 17.712 12.1639 17.2358 11.4648 16.5366C10.7656 15.8374 10.2894 14.9466 10.0965 13.9768C9.9036 13.007 10.0026 12.0017 10.381 11.0882C10.7594 10.1746 11.4002 9.3938 12.2224 8.84442ZM13.6112 15.0799C14.0223 15.3546 14.5056 15.5012 15 15.5012C15.663 15.5012 16.2988 15.2379 16.7676 14.769C17.2364 14.3003 17.4998 13.6644 17.4998 13.0014C17.4998 12.507 17.3532 12.0237 17.0785 11.6126C16.8038 11.2016 16.4134 10.8811 15.9566 10.6919C15.4999 10.5027 14.9972 10.4532 14.5123 10.5496C14.0274 10.6461 13.582 10.8842 13.2324 11.2338C12.8828 11.5834 12.6447 12.0288 12.5482 12.5137C12.4518 12.9986 12.5013 13.5013 12.6905 13.958C12.8797 14.4148 13.2001 14.8052 13.6112 15.0799Z" fill="white"/>
</g>
<defs>
<clipPath id="clip0_2199_1365">
<rect width="30" height="30" fill="white" transform="translate(0 0.5)"/>
</clipPath>
</defs>
</svg>
