<svg width="94" height="76" viewBox="0 0 94 76" fill="none" xmlns="http://www.w3.org/2000/svg">
<path fill-rule="evenodd" clip-rule="evenodd" d="M21.3845 43.3482C19.148 45.6071 19.148 49.2696 21.3845 51.5286L43.0102 73.37C45.2469 75.629 48.8729 75.629 51.1096 73.37L91.6069 32.4683C93.8436 30.2093 93.8436 26.5471 91.6069 24.2881L85.1679 17.7847C84.7952 17.4082 84.1908 17.4082 83.818 17.7847L76.0897 25.5901C74.0208 27.6796 70.6666 27.6796 68.5978 25.5901C66.5289 23.5006 66.5289 20.1127 68.5978 18.0232L76.326 10.2178C76.6987 9.84135 76.6987 9.23094 76.326 8.85446L69.9815 2.44652C67.7448 0.187585 64.1185 0.187585 61.8819 2.44652L21.3845 43.3482ZM74.7062 19.4889C75.8243 20.6183 75.8243 22.4496 74.7062 23.5791C73.5879 24.7086 71.7746 24.7086 70.6563 23.5791C69.538 22.4496 69.538 20.6183 70.6563 19.4889C71.7746 18.3594 73.5879 18.3594 74.7062 19.4889ZM24.1105 2.45262C26.3471 0.193682 29.9732 0.193686 32.2099 2.45262L45.3669 15.7409L19.695 41.6691C18.1282 43.2516 17.3098 45.3037 17.2397 47.3766L2.48483 32.4745C0.248221 30.2155 0.248221 26.553 2.48483 24.294L24.1105 2.45262Z" fill="#F4262F"/>
</svg>
