<svg width="32" height="33" viewBox="0 0 32 33" fill="none" xmlns="http://www.w3.org/2000/svg">
<path d="M18.6685 5.83338C18.6685 5.47981 18.809 5.14073 19.059 4.89072C19.309 4.64071 19.6481 4.50026 20.0017 4.50026C20.3552 4.50026 20.6943 4.64071 20.9443 4.89072C21.1943 5.14073 21.3348 5.47981 21.3348 5.83338C21.3348 6.18695 21.1943 6.52603 20.9443 6.77604C20.6943 7.02605 20.3552 7.16651 20.0017 7.16651C19.6481 7.16651 19.309 7.02605 19.059 6.77604C18.809 6.52603 18.6685 6.18695 18.6685 5.83338ZM32 28.4965C32 29.5572 31.5786 30.5745 30.8286 31.3245C30.0785 32.0745 29.0613 32.4959 28.0006 32.4959H16.0022C7.23942 32.7052 -0.207554 24.8864 0.00441687 16.1984C0.168011 11.9509 1.98169 7.9347 5.05994 5.00337C8.1382 2.07205 12.2383 0.456776 16.4888 0.50088L30.6669 0.531542C31.0204 0.531542 31.3595 0.671996 31.6095 0.922005C31.8595 1.17201 32 1.5111 32 1.86467C32 2.21823 31.8595 2.55732 31.6095 2.80733C31.3595 3.05734 31.0204 3.19779 30.6669 3.19779H29.247C28.943 5.82533 27.6599 8.24182 25.6537 9.96563C23.6474 11.6894 21.0653 12.594 18.4219 12.499C16.5019 12.4997 14.6293 13.0949 13.0613 14.2027C13.4577 14.5587 13.924 14.8281 14.4303 14.9939C14.9367 15.1596 15.472 15.218 16.0022 15.1653C16.3558 15.1653 16.6949 15.3057 16.9449 15.5557C17.1949 15.8057 17.3354 16.1448 17.3354 16.4984C17.3354 16.852 17.1949 17.191 16.9449 17.441C16.6949 17.6911 16.3558 17.8315 16.0022 17.8315C15.1094 17.894 14.2134 17.766 13.3738 17.456C12.5342 17.1459 11.7701 16.6609 11.1322 16.0331C10.4192 16.937 9.89877 17.9773 9.60309 19.09C10.0921 19.5728 10.6771 19.9476 11.3201 20.1901C11.9631 20.4326 12.6498 20.5374 13.3359 20.4978C13.6895 20.4978 14.0286 20.6382 14.2786 20.8882C14.5286 21.1382 14.6691 21.4773 14.6691 21.8309C14.4518 24.3238 10.3763 22.7307 9.41245 22.2402C9.67883 24.3323 10.6973 26.2561 12.2778 27.6526C13.8583 29.0491 15.8929 29.8229 18.0019 29.8296C19.747 28.4659 25.2569 24.4971 28.0006 24.4971C29.0613 24.4971 30.0785 24.9185 30.8286 25.6685C31.5786 26.4186 32 27.4358 32 28.4965ZM14.6691 6.49994C14.6797 6.99319 14.7961 7.47842 15.0101 7.92291C15.2242 8.36741 15.5311 8.76084 15.9102 9.07668C16.2892 9.39253 16.7315 9.62344 17.2073 9.75387C17.6832 9.88429 18.1814 9.91119 18.6685 9.83276C20.5545 9.83042 22.3792 9.16299 23.8216 7.94791C25.264 6.73282 26.2315 5.04796 26.5541 3.18979L17.9699 3.16713C17.0916 3.17556 16.252 3.53042 15.6339 4.15453C15.0158 4.77864 14.669 5.62154 14.6691 6.49994ZM6.00359 7.84773C6.1623 9.0614 6.72565 10.1861 7.60258 11.04C8.47951 11.894 9.61878 12.4272 10.8363 12.5537C11.7315 11.8175 12.7289 11.2154 13.7972 10.7659C12.8773 9.85849 12.2768 8.67709 12.0857 7.3992C11.8946 6.12131 12.1232 4.8159 12.7373 3.67905C10.1383 4.39146 7.80008 5.83896 6.00359 7.84773ZM8.72188 27.6726C7.23794 25.5781 6.52477 23.0345 6.70349 20.4738C5.49157 20.6235 4.26155 20.4549 3.13465 19.9845C3.99352 23.1446 5.98143 25.88 8.72188 27.6726ZM8.72188 14.8093C6.6937 14.0933 5.02804 12.6091 4.08385 10.6766C3.19833 12.3941 2.7151 14.2906 2.67072 16.2224C2.97867 16.8063 4.11185 18.3288 7.23675 17.7075C7.58839 16.6737 8.09013 15.6972 8.72588 14.8093H8.72188ZM29.3337 28.4965C28.8004 25.5636 25.4049 28.1859 22.7346 29.8296H28.0006C28.3541 29.8296 28.6932 29.6892 28.9432 29.4392C29.1932 29.1892 29.3337 28.8501 29.3337 28.4965Z" fill="#F4262F"/>
</svg>
