<svg width="30" height="31" viewBox="0 0 30 31" fill="none" xmlns="http://www.w3.org/2000/svg">
<g clip-path="url(#clip0_2201_2776)">
<path d="M15 30.5C12.9675 30.5 11.05 29.6075 9.74 28.0513C7.815 28.2725 5.83125 27.5437 4.39375 26.1075C2.9575 24.67 2.2325 22.6825 2.40625 20.655C0.8925 19.45 0 17.5325 0 15.5C0 13.4675 0.8925 11.55 2.45 10.24C2.23125 8.31875 2.95625 6.33125 4.39375 4.89375C5.83125 3.455 7.815 2.73125 9.845 2.90625C11.05 1.39375 12.9675 0.5 15 0.5C17.0325 0.5 18.95 1.3925 20.26 2.94875C22.1875 2.72875 24.1688 3.45625 25.6063 4.8925C27.0425 6.33 27.7675 8.3175 27.5938 10.345C29.1075 11.55 30 13.4675 30 15.5C30 17.5325 29.1075 19.45 27.55 20.76C27.7688 22.6813 27.0438 24.6688 25.6063 26.1063C24.1675 27.5438 22.18 28.2675 20.155 28.0938C18.95 29.6063 17.0325 30.5 15 30.5ZM9.84125 25.595C10.5425 25.595 11.1925 25.8963 11.6512 26.44C12.4862 27.4313 13.7063 28 15 28C16.2938 28 17.5138 27.4313 18.3488 26.44C18.8525 25.8413 19.5862 25.5388 20.3687 25.6025C21.6612 25.7113 22.9237 25.2525 23.8387 24.3375C24.7525 23.4237 25.2137 22.1588 25.1037 20.8675C25.0362 20.0875 25.3413 19.3512 25.9413 18.8462C26.9313 18.0125 27.5 16.7912 27.5 15.4987C27.5 14.2062 26.9313 12.985 25.9413 12.1512C25.3425 11.6475 25.0362 10.91 25.1037 10.13C25.2137 8.83875 24.7537 7.57375 23.8387 6.66C22.9237 5.74625 21.6537 5.29 20.37 5.395C19.5875 5.46625 18.8525 5.15625 18.3488 4.55875C17.5138 3.5675 16.2938 2.99875 15 2.99875C13.7063 2.99875 12.4862 3.5675 11.6512 4.55875C11.1462 5.1575 10.41 5.4575 9.63125 5.39625C8.3325 5.28375 7.07625 5.74625 6.16125 6.66125C5.2475 7.575 4.78625 8.84 4.89625 10.1312C4.96375 10.9112 4.65875 11.6475 4.05875 12.1525C3.06875 12.9862 2.5 14.2075 2.5 15.5C2.5 16.7925 3.06875 18.0138 4.05875 18.8475C4.6575 19.3513 4.96375 20.0887 4.89625 20.8687C4.78625 22.16 5.24625 23.425 6.16125 24.3387C7.07625 25.2537 8.3525 25.7112 9.63 25.6037C9.70125 25.5975 9.77125 25.595 9.84125 25.595ZM11.25 10.5C10.56 10.5 10 11.06 10 11.75C10 12.44 10.56 13 11.25 13C11.94 13 12.5 12.44 12.5 11.75C12.5 11.06 11.94 10.5 11.25 10.5ZM18.75 18C18.06 18 17.5 18.56 17.5 19.25C17.5 19.94 18.06 20.5 18.75 20.5C19.44 20.5 20 19.94 20 19.25C20 18.56 19.44 18 18.75 18ZM13.54 19.9438L18.54 12.4438C18.9237 11.87 18.7688 11.0925 18.1938 10.71C17.6175 10.325 16.8425 10.4825 16.46 11.0562L11.46 18.5562C11.0763 19.13 11.2312 19.9075 11.8062 20.29C12.02 20.4325 12.26 20.5 12.4988 20.5C12.9025 20.5 13.3 20.305 13.54 19.9438Z" fill="#DA2931"/>
</g>
<defs>
<clipPath id="clip0_2201_2776">
<rect width="30" height="30" fill="white" transform="translate(0 0.5)"/>
</clipPath>
</defs>
</svg>
