<svg width="25" height="26" viewBox="0 0 25 26" fill="none" xmlns="http://www.w3.org/2000/svg">
<path d="M23.304 4.44632C21.7467 3.55985 20.0337 2.98059 18.2579 2.73999C17.9891 2.22265 17.615 1.76731 17.1596 1.40324C16.6692 1.01328 16.0965 0.740046 15.4848 0.604224C14.8732 0.468403 14.2386 0.473562 13.6293 0.619311C12.3269 0.947952 11.0637 1.41602 9.86161 2.0154C9.00826 1.60967 8.0551 1.46163 7.11889 1.5894C6.18267 1.71718 5.30405 2.11522 4.59063 2.73478C4.20855 3.06272 3.82439 3.40524 3.44544 3.75817C3.04775 4.13191 2.64277 4.55667 2.23883 5.01787C1.7327 5.59652 1.37149 6.28727 1.18504 7.03309C0.998584 7.7789 0.992236 8.55837 1.16652 9.30712C1.24697 9.66057 1.36602 10.0041 1.52153 10.3315C0.918077 11.5422 0.446199 12.814 0.113986 14.1252C-0.0323877 14.7346 -0.0378604 15.3692 0.0979839 15.981C0.233828 16.5927 0.507411 17.1654 0.897919 17.6555C1.26577 18.1157 1.72706 18.4925 2.25132 18.7612C2.49256 20.5343 3.07143 22.2448 3.95661 23.8C4.30005 24.4169 4.83242 24.9074 5.47542 25.1992C6.11841 25.491 6.83808 25.5687 7.52855 25.4209C8.24279 25.2795 8.89257 24.912 9.38188 24.3728C9.8712 23.8337 10.1741 23.1514 10.2458 22.4268C10.4401 21.0865 10.7923 19.774 11.2952 18.5165C11.2952 18.5165 11.8626 18.1667 12.1218 17.9554C12.746 17.4318 13.189 16.7247 13.3877 15.9346C13.8691 15.7753 14.3067 15.5062 14.6662 15.1486C15.0163 14.7923 15.2811 14.3612 15.4408 13.8879C16.2281 13.6881 16.9325 13.2456 17.4542 12.623C17.6624 12.3637 18.0164 11.7953 18.0164 11.7953C19.2711 11.279 20.5865 10.9246 21.9308 10.7407C22.6554 10.669 23.3377 10.3661 23.8769 9.8768C24.4161 9.38748 24.7835 8.7377 24.925 8.02347C25.0752 7.33219 24.9986 6.61092 24.7066 5.96659C24.4146 5.32225 23.9228 4.78916 23.304 4.44632ZM8.1709 22.1946C8.14584 22.4818 8.02793 22.7529 7.83502 22.9671C7.6421 23.1812 7.38468 23.3267 7.10171 23.3815C6.84133 23.4407 6.56868 23.4127 6.3258 23.3017C6.08292 23.1907 5.88329 23.0029 5.75768 22.7672C5.13157 21.6707 4.68287 20.482 4.42822 19.2453H8.48843C8.60191 19.2453 8.71226 19.2224 8.8247 19.2161C8.52695 20.1354 8.1709 22.1905 8.1709 22.1946ZM10.8048 16.3375C10.1512 16.8705 9.3339 17.162 8.49051 17.1631H4.1742C3.85751 17.1638 3.54484 17.0922 3.25997 16.9538C2.97511 16.8155 2.72557 16.6139 2.53033 16.3646C2.33559 16.1206 2.19902 15.8354 2.13101 15.5307C2.063 15.226 2.06534 14.9099 2.13784 14.6062C2.34627 13.7657 2.62487 12.9442 2.97071 12.1503C3.2921 12.4018 3.644 12.6117 4.01803 12.775L10.9693 15.8191C11.0339 15.8493 11.1026 15.8607 11.1682 15.8857C11.075 16.0568 10.952 16.2098 10.8048 16.3375ZM13.1837 13.6807C13.0097 13.8571 12.7854 13.9752 12.5415 14.0188C12.2977 14.0625 12.0463 14.0294 11.822 13.9243L4.85402 10.8729C4.43857 10.6909 4.07231 10.4127 3.78542 10.0614C3.49853 9.71009 3.29922 9.29562 3.20391 8.85217C3.10287 8.42231 3.10549 7.97458 3.21157 7.54594C3.31764 7.11729 3.52413 6.72002 3.81398 6.38689C4.1742 5.97671 4.53025 5.60192 4.87901 5.27398C5.22777 4.94604 5.58902 4.6233 5.9482 4.31618C6.27966 4.0277 6.67447 3.82143 7.10059 3.71411C7.5267 3.60678 7.97212 3.60143 8.40069 3.69848C8.82926 3.79553 9.22891 3.99226 9.56722 4.27269C9.90553 4.55312 10.173 4.90936 10.3478 5.3125L13.4336 12.2773C13.5368 12.5094 13.5682 12.7672 13.5236 13.0173C13.4791 13.2674 13.3607 13.4985 13.1837 13.6807ZM16.6671 8.98647C16.6664 9.82974 16.3753 10.647 15.8426 11.3008C15.7209 11.4417 15.5763 11.5611 15.4147 11.6537C15.3877 11.5808 15.3679 11.5059 15.3367 11.434L12.2519 4.47026C12.096 4.1167 11.8997 3.78237 11.6668 3.47395C12.4568 3.12899 13.2741 2.8504 14.1103 2.64109C14.4139 2.56843 14.7301 2.56601 15.0348 2.63403C15.3395 2.70204 15.6247 2.83869 15.8686 3.03357C16.1185 3.22924 16.3204 3.47946 16.4588 3.76509C16.5972 4.05072 16.6685 4.36421 16.6671 4.6816V8.98647ZM22.8855 7.59767C22.8307 7.88063 22.6853 8.13805 22.4711 8.33097C22.257 8.52388 21.9858 8.64179 21.6987 8.66685C21.6987 8.66685 19.6394 9.0229 18.7202 9.32273C18.7274 9.2103 18.7493 9.09994 18.7493 8.98647V4.92626C19.9861 5.18091 21.1747 5.62961 22.2713 6.25571C22.5062 6.38162 22.6934 6.58097 22.8043 6.82329C22.9152 7.06562 22.9437 7.3376 22.8855 7.59767Z" fill="#F4262F"/>
</svg>
