<svg width="27" height="26" viewBox="0 0 27 26" fill="none" xmlns="http://www.w3.org/2000/svg">
<path d="M25.2961 1.33711C24.9053 0.94755 24.4084 0.678704 23.8658 0.563303C23.3232 0.447901 22.7584 0.490923 22.2401 0.687129L4.17314 7.72125C2.99252 8.18277 2.02139 9.05202 1.44001 10.1677C0.858629 11.2833 0.706484 12.5696 1.01182 13.7877C1.77794 16.552 3.25867 19.0716 5.3084 21.0988C7.35814 23.126 9.90631 24.591 12.7024 25.3498C13.936 25.6497 15.2378 25.4974 16.3664 24.9211C17.4951 24.3447 18.3742 23.3835 18.8406 22.2155L25.9621 4.32866C26.1541 3.81955 26.1934 3.26648 26.0753 2.73583C25.9571 2.20518 25.6866 1.7195 25.2961 1.33711ZM13.2261 23.3269C10.793 22.6669 8.57548 21.3924 6.79148 19.6288C5.00747 17.8652 3.71838 15.6731 3.05087 13.2679C2.89694 12.6473 2.94262 11.9948 3.18155 11.401C3.42049 10.8073 3.84078 10.302 4.3839 9.95554C4.49283 13.1176 5.81212 16.1209 8.07513 18.3584C10.3381 20.5959 13.3761 21.9008 16.575 22.0093C16.2248 22.546 15.714 22.9613 15.1138 23.1975C14.5135 23.4337 13.8536 23.4789 13.2261 23.3269ZM17.4697 19.9656C10.9458 19.8614 6.55783 15.5231 6.4514 9.07328L22.9883 2.63602C23.1264 2.5837 23.277 2.57258 23.4214 2.60406C23.5658 2.63554 23.6977 2.70822 23.8008 2.81309C23.9059 2.91026 23.9799 3.0357 24.0138 3.17395C24.0477 3.31221 24.04 3.45724 23.9915 3.59119L23.2939 5.34217C17.2263 3.27974 13.871 11.8096 19.6974 14.371L17.4697 19.9656ZM20.4698 12.4325C19.8089 12.1445 19.2863 11.6149 19.0115 10.9546C18.7367 10.2943 18.7311 9.55455 18.9957 8.89021C19.2603 8.22587 19.7747 7.68849 20.4311 7.3906C21.0875 7.09271 21.8351 7.05741 22.5173 7.2921L20.4698 12.4325Z" fill="#F4262F"/>
<path d="M12.44 9.87846C11.8811 9.87846 11.345 10.0979 10.9497 10.4886C10.5545 10.8793 10.3325 11.4092 10.3325 11.9617C10.3325 12.5142 10.5545 13.0441 10.9497 13.4348C11.345 13.8255 11.8811 14.045 12.44 14.045C12.999 14.045 13.535 13.8255 13.9303 13.4348C14.3255 13.0441 14.5476 12.5142 14.5476 11.9617C14.5476 11.4092 14.3255 10.8793 13.9303 10.4886C13.535 10.0979 12.999 9.87846 12.44 9.87846Z" fill="#F4262F"/>
</svg>
