<svg width="32" height="32" viewBox="0 0 32 32" fill="none" xmlns="http://www.w3.org/2000/svg">
<g clip-path="url(#clip0_2500_999)">
<path d="M9.33333 0H5.33333C2.392 0 0 2.392 0 5.33333V9.33333C0 12.2747 2.392 14.6667 5.33333 14.6667H9.33333C12.2747 14.6667 14.6667 12.2747 14.6667 9.33333V5.33333C14.6667 2.392 12.2747 0 9.33333 0ZM12 9.33333C12 10.804 10.804 12 9.33333 12H5.33333C3.86267 12 2.66667 10.804 2.66667 9.33333V5.33333C2.66667 3.86267 3.86267 2.66667 5.33333 2.66667H9.33333C10.804 2.66667 12 3.86267 12 5.33333V9.33333ZM9.33333 6.66667V8C9.33333 8.736 8.736 9.33333 8 9.33333H6.66667C5.93067 9.33333 5.33333 8.736 5.33333 8V6.66667C5.33333 5.93067 5.93067 5.33333 6.66667 5.33333H8C8.736 5.33333 9.33333 5.93067 9.33333 6.66667ZM22.6667 14.6667H26.6667C29.608 14.6667 32 12.2747 32 9.33333V5.33333C32 2.392 29.608 0 26.6667 0H22.6667C19.7253 0 17.3333 2.392 17.3333 5.33333V9.33333C17.3333 12.2747 19.7253 14.6667 22.6667 14.6667ZM20 5.33333C20 3.86267 21.196 2.66667 22.6667 2.66667H26.6667C28.1373 2.66667 29.3333 3.86267 29.3333 5.33333V9.33333C29.3333 10.804 28.1373 12 26.6667 12H22.6667C21.196 12 20 10.804 20 9.33333V5.33333ZM22.6667 8V6.66667C22.6667 5.93067 23.264 5.33333 24 5.33333H25.3333C26.0693 5.33333 26.6667 5.93067 26.6667 6.66667V8C26.6667 8.736 26.0693 9.33333 25.3333 9.33333H24C23.264 9.33333 22.6667 8.736 22.6667 8ZM9.33333 17.3333H5.33333C2.392 17.3333 0 19.7253 0 22.6667V26.6667C0 29.608 2.392 32 5.33333 32H9.33333C12.2747 32 14.6667 29.608 14.6667 26.6667V22.6667C14.6667 19.7253 12.2747 17.3333 9.33333 17.3333ZM12 26.6667C12 28.1373 10.804 29.3333 9.33333 29.3333H5.33333C3.86267 29.3333 2.66667 28.1373 2.66667 26.6667V22.6667C2.66667 21.196 3.86267 20 5.33333 20H9.33333C10.804 20 12 21.196 12 22.6667V26.6667ZM9.33333 24V25.3333C9.33333 26.0693 8.736 26.6667 8 26.6667H6.66667C5.93067 26.6667 5.33333 26.0693 5.33333 25.3333V24C5.33333 23.264 5.93067 22.6667 6.66667 22.6667H8C8.736 22.6667 9.33333 23.264 9.33333 24ZM22.6667 19.3333V20.6667C22.6667 21.7707 21.7707 22.6667 20.6667 22.6667H19.3333C18.2293 22.6667 17.3333 21.7707 17.3333 20.6667V19.3333C17.3333 18.2293 18.2293 17.3333 19.3333 17.3333H20.6667C21.7707 17.3333 22.6667 18.2293 22.6667 19.3333ZM26.6667 24.6667C26.6667 25.7707 25.7707 26.6667 24.6667 26.6667C23.5627 26.6667 22.6667 25.7707 22.6667 24.6667C22.6667 23.5627 23.5627 22.6667 24.6667 22.6667C25.7707 22.6667 26.6667 23.5627 26.6667 24.6667ZM22.6667 28.6667V30C22.6667 31.104 21.7707 32 20.6667 32H19.3333C18.2293 32 17.3333 31.104 17.3333 30V28.6667C17.3333 27.5627 18.2293 26.6667 19.3333 26.6667H20.6667C21.7707 26.6667 22.6667 27.5627 22.6667 28.6667ZM32 19.3333V20.6667C32 21.7707 31.104 22.6667 30 22.6667H28.6667C27.5627 22.6667 26.6667 21.7707 26.6667 20.6667V19.3333C26.6667 18.2293 27.5627 17.3333 28.6667 17.3333H30C31.104 17.3333 32 18.2293 32 19.3333Z" fill="white"/>
</g>
<defs>
<clipPath id="clip0_2500_999">
<rect width="32" height="32" fill="white"/>
</clipPath>
</defs>
</svg>
