<svg width="25" height="26" viewBox="0 0 25 26" fill="none" xmlns="http://www.w3.org/2000/svg">
<path d="M19.7892 12.9943H17.065L17.6277 8.483C17.7261 8.02667 17.7214 7.55418 17.6142 7.09986C17.5069 6.64554 17.2998 6.22081 17.0078 5.85652C16.7157 5.49223 16.3462 5.19754 15.926 4.99386C15.5057 4.79017 15.0454 4.68261 14.5784 4.67899H12.1095C12.2231 3.8759 12.1543 2.58845 13.2913 2.58325H16.6627C16.9391 2.58325 17.2042 2.4735 17.3996 2.27816C17.5951 2.08282 17.7049 1.81788 17.7049 1.54162C17.7049 1.26537 17.5951 1.00043 17.3996 0.805084C17.2042 0.609742 16.9391 0.5 16.6627 0.5H13.2913C12.5296 0.500469 11.7942 0.778861 11.2234 1.2829C10.6525 1.78693 10.2853 2.48193 10.1909 3.23739L10.0106 4.67899H3.11461C2.65689 4.6839 2.20574 4.7885 1.79261 4.98552C1.37948 5.18253 1.01431 5.46721 0.722525 5.81973C0.430745 6.17224 0.219382 6.58411 0.103164 7.02662C-0.0130537 7.46914 -0.0313301 7.93166 0.0496084 8.38196L1.6264 20.9419C1.78584 22.1999 2.39856 23.3567 3.34985 24.1957C4.30114 25.0347 5.52577 25.4984 6.79448 25.5L19.7892 25.4875C20.4735 25.4875 21.1511 25.3528 21.7833 25.0911C22.4155 24.8293 22.9899 24.4457 23.4738 23.9621C23.9577 23.4785 24.3415 22.9043 24.6034 22.2724C24.8652 21.6406 25 20.9633 25 20.2794V18.2024C25 17.5184 24.8652 16.8412 24.6034 16.2093C24.3415 15.5774 23.9577 15.0033 23.4738 14.5197C22.9899 14.0361 22.4155 13.6524 21.7833 13.3907C21.1511 13.129 20.4735 12.9943 19.7892 12.9943ZM22.9157 18.2024H10.4097C10.4097 17.3736 10.7391 16.5788 11.3255 15.9928C11.9118 15.4067 12.707 15.0775 13.5362 15.0775H19.7892C20.6184 15.0775 21.4136 15.4067 22 15.9928C22.5863 16.5788 22.9157 17.3736 22.9157 18.2024ZM14.5784 6.7612C14.743 6.76209 14.9052 6.80153 15.0518 6.87636C15.1984 6.95119 15.3255 7.05933 15.4228 7.1921C15.52 7.32487 15.5848 7.47858 15.6119 7.64089C15.639 7.80321 15.6277 7.96962 15.5789 8.12677L15.4882 8.82778H11.5905L11.849 6.75911L14.5784 6.7612ZM2.30589 7.15076C2.40312 7.0297 2.5262 6.93189 2.66613 6.86448C2.80605 6.79708 2.95928 6.76179 3.11461 6.7612H9.75005L9.49055 8.82778H2.20167L2.09746 8.02573C2.06405 7.87361 2.06545 7.71592 2.10154 7.56442C2.13763 7.41291 2.20748 7.27151 2.30589 7.15076ZM3.69405 20.6835L2.4643 10.911H15.2277L14.9661 12.9943H13.5362C12.1542 12.9943 10.8288 13.543 9.85162 14.5197C8.87441 15.4964 8.32541 16.8211 8.32541 18.2024C8.28164 19.9044 8.2212 22.0981 9.40509 23.4209H6.79448C6.03276 23.4205 5.29741 23.1421 4.72652 22.638C4.15564 22.134 3.7885 21.439 3.69405 20.6835ZM19.7892 23.4105H13.5362C12.707 23.4105 11.9118 23.0813 11.3255 22.4953C10.7391 21.9092 10.4097 21.1144 10.4097 20.2856H14.2657C14.6691 20.4794 17.2619 22.4845 17.7049 22.3689C18.1384 22.4918 20.7584 20.47 21.144 20.2856H22.9157C22.9157 21.1144 22.5863 21.9092 22 22.4953C21.4136 23.0813 20.6184 23.4105 19.7892 23.4105Z" fill="#F4262F"/>
</svg>
