<svg width="25" height="26" viewBox="0 0 25 26" fill="none" xmlns="http://www.w3.org/2000/svg">
<path d="M24.0278 12.5886C23.4807 11.8497 22.7034 11.3189 21.8213 11.0819C22.2512 9.81802 22.5689 8.51792 22.7706 7.19702C22.8365 6.71687 22.7913 6.2278 22.6385 5.76832C22.4858 5.30884 22.2296 4.89149 21.8903 4.54912C21.5509 4.20676 21.1376 3.94872 20.6829 3.79532C20.2282 3.64193 19.7445 3.59736 19.2698 3.66514C19.1401 3.68284 18.755 3.74011 18.2289 3.84319C18.5547 3.11376 18.709 2.31795 18.6799 1.51811C18.6755 1.38137 18.6446 1.24683 18.5889 1.12218C18.5331 0.997524 18.4537 0.885193 18.355 0.791599C18.2563 0.698005 18.1404 0.624981 18.0138 0.576696C17.8872 0.528412 17.7525 0.505812 17.6173 0.510188C17.4821 0.514563 17.349 0.545828 17.2258 0.602198C17.1025 0.658568 16.9914 0.738938 16.8989 0.83872C16.8063 0.938502 16.7341 1.05574 16.6864 1.18374C16.6386 1.31175 16.6163 1.44801 16.6206 1.58475C16.6382 2.08773 16.5361 2.58764 16.323 3.04248C16.1741 2.63604 15.9617 2.25637 15.6939 1.91794C15.2388 1.39409 14.661 0.994 14.0135 0.754257C13.3659 0.514514 12.6693 0.442772 11.9873 0.54559C11.2394 0.606295 10.5246 0.883155 9.928 1.34318C9.25354 0.830049 8.43757 0.542497 7.59383 0.5206C6.52321 0.415664 5.45509 0.744018 4.62335 1.43377C4.20102 1.81399 3.86004 2.27754 3.62136 2.79592C3.38268 3.3143 3.25134 3.87656 3.23541 4.44815C3.20715 5.36342 3.47066 6.26362 3.98704 7.01584C3.35886 7.56051 2.87123 8.25164 2.56627 9.02952C2.26131 9.80741 2.14819 10.6487 2.23667 11.4807C1.42239 11.9396 0.787814 12.6663 0.438322 13.5402C0.0888302 14.4141 0.0454465 15.3827 0.315375 16.2849C1.02068 18.7667 2.33343 21.0286 4.13221 22.8614C5.85788 24.563 8.17572 25.5106 10.5859 25.4999H14.4182C16.8282 25.5108 19.1457 24.5632 20.8709 22.8614C22.6704 21.029 23.9835 18.767 24.6888 16.2849C24.8726 15.6595 24.9086 14.9992 24.7937 14.3571C24.6789 13.7151 24.4165 13.1093 24.0278 12.5886ZM19.5561 5.72679C19.7154 5.70505 19.8776 5.72085 20.0299 5.77297C20.1822 5.82509 20.3205 5.91211 20.434 6.02724C20.5476 6.14236 20.6333 6.28247 20.6844 6.43663C20.7355 6.59078 20.7507 6.75481 20.7288 6.91589C20.5129 8.28323 20.1628 9.62542 19.6837 10.9226H17.0469L18.3782 9.57625C18.5657 9.37987 18.6695 9.11685 18.6672 8.84384C18.6648 8.57083 18.5565 8.30968 18.3656 8.11662C18.1747 7.92357 17.9165 7.81406 17.6465 7.81169C17.3766 7.80932 17.1165 7.91427 16.9223 8.10394L14.1351 10.9226H12.5402C12.465 10.3749 12.5166 9.81711 12.691 9.2931C12.8654 8.76908 13.1578 8.2932 13.5451 7.90298C13.9847 7.45421 15.6702 6.237 19.5561 5.72679ZM5.29467 4.51791C5.30086 4.23126 5.36476 3.94889 5.48249 3.68805C5.60021 3.42721 5.76928 3.19337 5.97937 3.00083C6.40417 2.6833 6.93189 2.53975 7.45689 2.59891C7.71047 2.58837 7.96339 2.63218 8.19904 2.72747C8.4347 2.82275 8.64776 2.96737 8.82424 3.15181C8.96317 3.30879 9.13329 3.43436 9.32349 3.5203C9.51369 3.60624 9.71968 3.65063 9.928 3.65056C10.1358 3.64952 10.3411 3.60431 10.5306 3.51785C10.72 3.43138 10.8894 3.30561 11.0276 3.14869C11.1812 2.98441 11.3655 2.85261 11.5698 2.76091C11.7741 2.66922 11.9944 2.61946 12.2179 2.61453C12.5582 2.55322 12.9083 2.5782 13.2368 2.68722C13.5652 2.79625 13.8618 2.98592 14.1001 3.23927C14.4126 3.64394 14.5758 4.14624 14.5613 4.65952C14.5613 4.7272 14.5613 4.87506 14.5613 4.87506C13.1945 5.3728 12.0269 6.31031 11.2377 7.54375C10.5875 6.7654 9.72246 6.20098 8.75323 5.92273C7.784 5.64449 6.75471 5.66509 5.79713 5.98189C5.45544 5.57407 5.2763 5.05212 5.29467 4.51791ZM4.26504 10.9226C4.26504 10.0941 4.59047 9.29958 5.16975 8.71377C5.74903 8.12796 6.5347 7.79886 7.35393 7.79886C8.17315 7.79886 8.95882 8.12796 9.5381 8.71377C10.1174 9.29958 10.4428 10.0941 10.4428 10.9226H4.26504ZM22.7119 15.7008C22.0967 17.8428 20.9644 19.7965 19.4171 21.386C18.0791 22.7005 16.2836 23.4302 14.4182 23.4174H10.5859C8.72002 23.4298 6.92402 22.7002 5.58502 21.386C4.03758 19.7965 2.90532 17.8428 2.29021 15.7008C2.1979 15.3856 2.18 15.0528 2.23793 14.7293C2.29587 14.4058 2.42804 14.1005 2.62381 13.838C2.81376 13.5789 3.06124 13.3685 3.34632 13.2239C3.63139 13.0792 3.94608 13.0042 4.26504 13.005H20.7391C21.0591 13.0032 21.375 13.0777 21.6613 13.2225C21.9475 13.3672 22.196 13.5781 22.3865 13.838C22.5809 14.1012 22.7116 14.4068 22.7681 14.7303C22.8246 15.0538 22.8053 15.3862 22.7119 15.7008Z" fill="#F4262F"/>
</svg>
