<svg width="25" height="26" viewBox="0 0 25 26" fill="none" xmlns="http://www.w3.org/2000/svg">
<path d="M18.7474 16.8139C18.7474 17.1018 18.6378 17.378 18.4428 17.5816C18.2479 17.7852 17.9834 17.8996 17.7077 17.8996C17.4319 17.8996 17.1675 17.7852 16.9725 17.5816C16.7776 17.378 16.668 17.1018 16.668 16.8139C16.668 16.5259 16.7776 16.2497 16.9725 16.0461C17.1675 15.8425 17.4319 15.7281 17.7077 15.7281C17.9834 15.7281 18.2479 15.8425 18.4428 16.0461C18.6378 16.2497 18.7474 16.5259 18.7474 16.8139ZM15.6283 18.9854C15.3526 18.9854 15.0882 19.0998 14.8932 19.3034C14.6982 19.507 14.5887 19.7832 14.5887 20.0712C14.5887 20.3591 14.6982 20.6353 14.8932 20.8389C15.0882 21.0425 15.3526 21.1569 15.6283 21.1569C15.9041 21.1569 16.1685 21.0425 16.3635 20.8389C16.5585 20.6353 16.668 20.3591 16.668 20.0712C16.668 19.7832 16.5585 19.507 16.3635 19.3034C16.1685 19.0998 15.9041 18.9854 15.6283 18.9854ZM18.7474 20.0712C18.7474 20.3591 18.8569 20.6353 19.0519 20.8389C19.2468 21.0425 19.5113 21.1569 19.787 21.1569C20.0628 21.1569 20.3272 21.0425 20.5222 20.8389C20.7172 20.6353 20.8267 20.3591 20.8267 20.0712C20.8267 19.7832 20.7172 19.507 20.5222 19.3034C20.3272 19.0998 20.0628 18.9854 19.787 18.9854C19.5113 18.9854 19.2468 19.0998 19.0519 19.3034C18.8569 19.507 18.7474 19.7832 18.7474 20.0712ZM23.9332 11.676C25.2401 13.9995 24.9729 17.4707 24.9854 20.0712C24.9837 21.5105 24.4355 22.8903 23.461 23.908C22.4865 24.9258 21.1652 25.4983 19.787 25.5H3.67212C2.70704 25.5 1.78148 25.0996 1.09906 24.387C0.416647 23.6743 0.0332696 22.7077 0.0332696 21.6998C0.0603011 17.8877 -0.510479 12.6879 2.17811 9.62282C2.35229 9.40506 2.60116 9.26715 2.87148 9.23862C3.14179 9.21008 3.41206 9.29318 3.62444 9.47014C3.83682 9.64709 3.97443 9.90383 4.00783 10.1854C4.04122 10.467 3.96774 10.7511 3.80312 10.9768C2.71036 12.4124 2.11458 14.1917 2.11261 16.0256V21.6998C2.11261 22.1318 2.27692 22.546 2.56938 22.8514C2.86185 23.1569 3.25851 23.3285 3.67212 23.3285C4.08573 23.3285 4.48239 23.1569 4.77486 22.8514C5.06732 22.546 5.23163 22.1318 5.23163 21.6998C5.28361 18.7954 4.85943 14.3036 6.31705 11.7444C4.86462 9.11251 4.37598 4.76184 8.61784 3.85305C8.9323 3.07103 9.50111 2.43011 10.2239 2.04334C10.9467 1.65657 11.7771 1.54881 12.5686 1.73906C12.883 1.35176 13.2742 1.04039 13.7152 0.826456C14.1561 0.612526 14.6363 0.501144 15.1225 0.500009C15.6087 0.498873 16.0894 0.608011 16.5312 0.819878C16.9731 1.03175 17.3656 1.34129 17.6817 1.72712C18.4698 1.54511 19.294 1.65834 20.0102 2.04699C20.7264 2.43565 21.2888 3.07496 21.5992 3.85305C25.7755 4.75206 25.3877 8.99633 23.9332 11.676ZM7.68109 9.59459C8.5985 8.47342 9.73631 7.57169 11.0172 6.95071C12.298 6.32972 13.6919 6.00404 15.104 5.99579C16.5162 5.98755 17.9134 6.29695 19.2009 6.90295C20.4883 7.50895 21.6357 8.39734 22.565 9.50773C23.2731 7.75638 22.8884 6.03544 20.8267 5.95618C20.587 5.95623 20.3547 5.8698 20.169 5.71151C19.9834 5.55323 19.8558 5.33281 19.8078 5.08757C19.7479 4.74081 19.5794 4.42468 19.3287 4.18883C19.078 3.95299 18.7594 3.81082 18.423 3.78465C18.2102 3.81876 18.0049 3.8923 17.8169 4.0018C17.5972 4.11118 17.3478 4.13664 17.112 4.07374C16.8763 4.01085 16.6691 3.86359 16.5266 3.65761C15.5067 2.28846 14.6396 2.40572 13.7195 3.68475C13.577 3.89099 13.3696 4.03842 13.1336 4.10132C12.8976 4.16423 12.648 4.13861 12.4282 4.02894C12.2388 3.91513 12.0336 3.83272 11.82 3.78465C11.4806 3.81029 11.1587 3.9517 10.9038 4.18712C10.6489 4.42254 10.4751 4.73891 10.4092 5.08757C10.3613 5.33281 10.2337 5.55323 10.048 5.71151C9.86232 5.8698 9.62999 5.95623 9.39032 5.95618C7.2777 6.03544 6.94917 7.83347 7.68109 9.59459ZM22.906 16.271C22.5141 5.37095 7.5501 5.5349 7.31097 16.5869C7.21948 17.7943 7.58856 22.2872 6.95956 23.3285H19.787C20.6142 23.3285 21.4076 22.9853 21.9925 22.3744C22.5774 21.7636 22.906 20.9351 22.906 20.0712V16.271Z" fill="#F4262F"/>
</svg>
