<svg width="16" height="16" viewBox="0 0 16 16" fill="none" xmlns="http://www.w3.org/2000/svg">
<path d="M12.0012 4.21839C11.8882 4.18883 11.7849 4.13383 11.701 4.05838C11.617 3.98293 11.555 3.88944 11.5205 3.78641C11.3291 3.19174 11.008 2.63885 10.5767 2.1612C10.1454 1.68354 9.6129 1.29105 9.01133 1.00748C8.40976 0.723909 7.75167 0.555151 7.07688 0.511417C6.40209 0.467683 5.72464 0.549884 5.08552 0.753044C4.44639 0.956205 3.85888 1.2761 3.35855 1.69338C2.85821 2.11065 2.45544 2.61663 2.17462 3.18069C1.8938 3.74475 1.74076 4.35517 1.72476 4.97501C1.70876 5.59484 1.83014 6.21121 2.08156 6.78681C2.13931 6.90794 2.15175 7.04318 2.11693 7.17146C2.0821 7.29975 2.00198 7.41388 1.88903 7.49609C1.39128 7.83468 1.00267 8.29031 0.764321 8.81476C0.525975 9.3392 0.446762 9.91296 0.535066 10.4753C0.672871 11.2355 1.10348 11.9252 1.74874 12.4193C2.394 12.9133 3.21115 13.179 4.05186 13.168H7.3755C7.54129 13.168 7.70029 13.1077 7.81751 13.0002C7.93474 12.8928 8.0006 12.747 8.0006 12.5951C8.0006 12.4432 7.93474 12.2974 7.81751 12.19C7.70029 12.0825 7.54129 12.0222 7.3755 12.0222H4.05186C3.51195 12.0342 2.98521 11.8685 2.56711 11.5552C2.149 11.2419 1.86719 10.8017 1.77276 10.3143C1.71287 9.95606 1.76141 9.58964 1.91308 9.25495C2.06474 8.92026 2.31372 8.63014 2.63289 8.4162C2.96814 8.18655 3.21066 7.86133 3.32233 7.49163C3.43401 7.12194 3.40852 6.72871 3.24986 6.37373C2.93616 5.61444 2.92003 4.77884 3.20423 4.00985C3.43126 3.40747 3.83782 2.87539 4.37784 2.47391C4.91786 2.07242 5.56977 1.81756 6.25971 1.73821C6.41974 1.71933 6.58092 1.70976 6.74228 1.70956C7.55057 1.70712 8.33797 1.94471 8.9866 2.38675C9.63522 2.8288 10.1102 3.45152 10.3403 4.16167C10.4302 4.43231 10.5921 4.67821 10.8114 4.87723C11.0307 5.07626 11.3006 5.22216 11.5968 5.30179C12.3216 5.49826 12.9636 5.89298 13.4369 6.4331C13.9102 6.97322 14.1921 7.63296 14.245 8.32401C14.2979 9.01506 14.1192 9.70442 13.7328 10.2998C13.3465 10.8952 12.7709 11.3682 12.0831 11.6555C11.9813 11.7033 11.8962 11.7763 11.8375 11.8663C11.7789 11.9562 11.7489 12.0595 11.7512 12.1643C11.75 12.2591 11.7748 12.3526 11.8233 12.4364C11.8718 12.5201 11.9425 12.5913 12.0288 12.6435C12.1152 12.6957 12.2145 12.7272 12.3176 12.735C12.4206 12.7429 12.5242 12.7269 12.6188 12.6885C15.203 11.5501 16.6069 8.55542 14.4191 5.66216C13.8167 4.94195 12.9634 4.43245 12.0012 4.21839Z" fill="#22C55E"/>
<path d="M12.1931 9.56262C12.3103 9.45518 12.3761 9.30948 12.3761 9.15756C12.3761 9.00565 12.3103 8.85995 12.1931 8.75251L11.2017 7.84385C10.8501 7.52163 10.3732 6.93301 9.87589 6.93301C9.37863 6.93301 8.90173 7.52163 8.55006 7.84385L7.55866 8.75251C7.44479 8.86056 7.38178 9.00528 7.38321 9.1555C7.38463 9.30572 7.45037 9.44942 7.56627 9.55564C7.68217 9.66187 7.83895 9.72212 8.00285 9.72343C8.16675 9.72473 8.32465 9.66698 8.44254 9.56262L9.25079 8.82183V14.9271C9.25079 15.079 9.31665 15.2248 9.43388 15.3322C9.55111 15.4396 9.71011 15.5 9.87589 15.5C10.0417 15.5 10.2007 15.4396 10.3179 15.3322C10.4351 15.2248 10.501 15.079 10.501 14.9271V8.82183L11.3092 9.56262C11.4265 9.67003 11.5854 9.73036 11.7512 9.73036C11.9169 9.73036 12.0759 9.67003 12.1931 9.56262Z" fill="#22C55E"/>
</svg>
