<svg width="562" height="562" viewBox="0 0 562 562" fill="none" xmlns="http://www.w3.org/2000/svg">
<g clip-path="url(#clip0_2369_1854)">
<path fill-rule="evenodd" clip-rule="evenodd" d="M347.27 250.979C328.559 267.279 305.434 277.664 280.821 280.821C247.821 285.02 214.503 275.956 188.179 255.616C161.855 235.278 144.675 205.325 140.41 172.334C137.253 147.721 141.466 122.724 152.516 100.504C163.565 78.2851 180.956 59.8413 202.488 47.5054C224.019 35.1697 248.726 29.4957 273.482 31.2012C298.238 32.9068 321.934 41.9151 341.57 57.0872C361.207 72.2594 375.904 92.9137 383.802 116.438C391.699 139.963 392.445 165.302 385.943 189.249C379.44 213.197 365.982 234.679 347.27 250.979ZM302.104 81.477C287.291 74.1106 270.626 71.3022 254.217 73.4068C232.213 76.2291 212.232 87.6767 198.668 105.231C185.105 122.786 179.071 145.01 181.893 167.014C183.998 183.422 190.921 198.84 201.787 211.314C212.653 223.788 226.975 232.76 242.94 237.095C258.906 241.429 275.798 240.933 291.482 235.668C307.165 230.402 320.934 220.605 331.049 207.513C341.164 194.422 347.169 178.626 348.306 162.122C349.443 145.617 345.66 129.146 337.437 114.792C329.213 100.437 316.917 88.8434 302.104 81.477ZM161.225 393.962C191.732 354.477 236.657 328.706 286.141 322.304C335.64 316.01 385.614 329.61 425.098 360.117C464.583 390.624 490.354 435.548 496.757 485.033C497.462 490.534 495.953 496.09 492.563 500.479C489.172 504.867 484.177 507.729 478.676 508.435C473.175 509.14 467.618 507.631 463.23 504.241C458.841 500.85 455.979 495.855 455.274 490.354C450.335 451.847 430.302 416.879 399.581 393.143C368.86 369.408 329.969 358.847 291.462 363.786C252.955 368.725 217.988 388.759 194.252 419.479C170.516 450.199 159.956 489.091 164.895 527.599C165.6 533.1 164.092 538.655 160.701 543.044C157.31 547.432 152.314 550.294 146.813 551C141.313 551.705 135.757 550.197 131.368 546.806C126.979 543.415 124.117 538.42 123.412 532.919C117.119 483.42 130.718 433.446 161.225 393.962Z" fill="#F4262F"/>
</g>
<path d="M238.978 200.482C262.437 207.824 303.484 201.903 319.554 176.72" stroke="#F4262F" stroke-width="14" stroke-linecap="round"/>
<ellipse cx="227.978" cy="140.482" rx="7" ry="9" fill="#F4262F"/>
<ellipse cx="273.978" cy="122.482" rx="7" ry="9" fill="#F4262F"/>
<defs>
<clipPath id="clip0_2369_1854">
<rect width="501.871" height="501.871" fill="white" transform="translate(0 63.8479) rotate(-7.30896)"/>
</clipPath>
</defs>
</svg>
