<svg width="50" height="50" viewBox="0 0 50 50" fill="none" xmlns="http://www.w3.org/2000/svg">
<g clip-path="url(#clip0_2157_1155)">
<path d="M25 0C11.2146 0 0 11.2146 0 25C0 38.7854 11.2146 50 25 50C38.7854 50 50 38.7854 50 25C50 11.2146 38.7854 0 25 0ZM16.6667 44.0917V43.75C16.6667 39.1542 20.4042 35.4167 25 35.4167C29.5958 35.4167 33.3333 39.1542 33.3333 43.75V44.0917C30.7792 45.2104 27.9625 45.8333 25 45.8333C22.0375 45.8333 19.2208 45.2104 16.6667 44.0917ZM37.3437 41.7729C36.3937 35.8167 31.2208 31.25 25 31.25C18.7792 31.25 13.6083 35.8167 12.6562 41.7729C7.51042 37.975 4.16667 31.8708 4.16667 25C4.16667 13.5125 13.5125 4.16667 25 4.16667C36.4875 4.16667 45.8333 13.5125 45.8333 25C45.8333 31.8708 42.4896 37.975 37.3437 41.7729ZM25 10.4167C20.4042 10.4167 16.6667 14.1542 16.6667 18.75C16.6667 23.3458 20.4042 27.0833 25 27.0833C29.5958 27.0833 33.3333 23.3458 33.3333 18.75C33.3333 14.1542 29.5958 10.4167 25 10.4167ZM25 22.9167C22.7021 22.9167 20.8333 21.0479 20.8333 18.75C20.8333 16.4521 22.7021 14.5833 25 14.5833C27.2979 14.5833 29.1667 16.4521 29.1667 18.75C29.1667 21.0479 27.2979 22.9167 25 22.9167Z" fill="#434343"/>
</g>
<defs>
<clipPath id="clip0_2157_1155">
<rect width="50" height="50" fill="white"/>
</clipPath>
</defs>
</svg>
